<svg width="356" height="431" viewBox="0 0 356 431" fill="none" xmlns="http://www.w3.org/2000/svg">
<g clip-path="url(#clip0_6_21163)">
<path d="M292.161 0.5C194.941 48.4446 97.7203 96.3966 0.5 144.349C0.529443 153.307 0.551525 162.274 0.580968 171.233C0.551525 171.247 0.529443 171.262 0.5 171.277C0.529443 181.239 0.558886 191.202 0.595689 201.164C0.566246 201.179 0.529443 201.194 0.5 201.208C0.529443 210.167 0.551525 219.133 0.580968 228.092C0.551525 228.107 0.529443 228.122 0.5 228.136C0.625132 270.111 0.757625 312.092 0.890118 354.067C21.2499 370.571 41.6096 387.068 61.9767 403.572C69.2712 399.697 76.573 395.822 83.8675 391.947C101.268 404.795 118.669 417.651 136.07 430.5C155.818 400.62 175.56 370.74 195.309 340.852C248.703 313.279 302.098 285.706 355.5 258.134V46.2543C334.389 31.0029 313.272 15.7514 292.161 0.5ZM88.5194 368.454L82.5794 377.266H81.7476C81.5415 373.67 81.328 370.073 81.1219 366.476C80.5625 356.792 80.0031 347.115 79.4437 337.438C78.9947 329.739 78.553 322.033 78.104 314.334C78.0083 314.356 77.9127 314.356 77.8243 314.4L43.2584 331.549L20.3519 342.91L10.886 347.606V151.791L287.605 14.5135V210.328L148.62 279.275C133.074 302.342 117.535 325.403 101.99 348.47C97.4995 355.129 93.0095 361.795 88.5194 368.454Z" fill="#AE7AFF"/>
<path d="M43.5676 222.598V180.888L28.1543 188.506V169.123L81.284 142.869V162.252L65.8264 169.885V211.596L43.5603 222.598H43.5676Z" fill="#AE7AFF"/>
<path d="M43.5676 222.598V180.888L28.1543 188.506V169.123L81.284 142.869V162.252L65.8264 169.885V211.596L43.5603 222.598H43.5676Z" fill="white" fill-opacity="0.8"/>
<path d="M89.248 200.021V138.92L111.514 127.918V189.019L89.248 200.021Z" fill="#AE7AFF"/>
<path d="M89.248 200.021V138.92L111.514 127.918V189.019L89.248 200.021Z" fill="white" fill-opacity="0.8"/>
<path d="M161.383 164.376C158.675 159.805 156.437 156.531 154.685 154.546C152.933 152.56 151.233 151.366 149.591 150.971C147.95 150.575 145.948 150.876 143.578 151.879V173.181L121.312 184.184V123.083L143.578 112.08V132.364C145.72 131.112 147.53 129.515 149.017 127.588C150.504 125.662 151.998 122.973 153.515 119.53C155.024 116.087 156.937 111.018 159.249 104.337L183.738 92.2358C181.964 97.0852 180.411 101.187 179.071 104.535C177.731 107.883 176.37 110.96 174.986 113.758C173.602 116.556 172.314 118.864 171.129 120.666C169.944 122.475 168.597 124.153 167.08 125.713C165.564 127.266 164.04 128.584 162.502 129.661C160.964 130.738 159.124 131.844 156.982 132.987V138.012C159.433 136.913 161.56 136.108 163.363 135.587C165.159 135.067 166.919 134.826 168.626 134.862C170.341 134.899 171.865 135.221 173.205 135.837C174.544 136.452 175.957 137.485 177.444 138.942C178.931 140.4 180.374 142.144 181.787 144.187C183.2 146.231 184.805 148.81 186.601 151.923L161.383 164.384V164.376Z" fill="#AE7AFF"/>
<path d="M161.383 164.376C158.675 159.805 156.437 156.531 154.685 154.546C152.933 152.56 151.233 151.366 149.591 150.971C147.95 150.575 145.948 150.876 143.578 151.879V173.181L121.312 184.184V123.083L143.578 112.08V132.364C145.72 131.112 147.53 129.515 149.017 127.588C150.504 125.662 151.998 122.973 153.515 119.53C155.024 116.087 156.937 111.018 159.249 104.337L183.738 92.2358C181.964 97.0852 180.411 101.187 179.071 104.535C177.731 107.883 176.37 110.96 174.986 113.758C173.602 116.556 172.314 118.864 171.129 120.666C169.944 122.475 168.597 124.153 167.08 125.713C165.564 127.266 164.04 128.584 162.502 129.661C160.964 130.738 159.124 131.844 156.982 132.987V138.012C159.433 136.913 161.56 136.108 163.363 135.587C165.159 135.067 166.919 134.826 168.626 134.862C170.341 134.899 171.865 135.221 173.205 135.837C174.544 136.452 175.957 137.485 177.444 138.942C178.931 140.4 180.374 142.144 181.787 144.187C183.2 146.231 184.805 148.81 186.601 151.923L161.383 164.384V164.376Z" fill="white" fill-opacity="0.8"/>
<path d="M187.285 131.17V117.706L217.854 102.601V116.065L187.285 131.17Z" fill="#AE7AFF"/>
<path d="M187.285 131.17V117.706L217.854 102.601V116.065L187.285 131.17Z" fill="white" fill-opacity="0.8"/>
<path d="M43.5676 306.108V264.397L28.1543 272.016V252.633L81.284 226.378V245.761L65.8264 253.394V295.105L43.5603 306.108H43.5676Z" fill="#AE7AFF"/>
<path d="M43.5676 306.108V264.397L28.1543 272.016V252.633L81.284 226.378V245.761L65.8264 253.394V295.105L43.5603 306.108H43.5676Z" fill="white" fill-opacity="0.8"/>
<path d="M102.564 276.953L79.5322 288.336L100.724 216.767L127.222 203.669L148.414 254.295L125.382 265.679L123.284 259.811L104.662 269.012L102.564 276.953ZM108.386 252.178L119.604 246.633C118.544 243.205 117.815 240.194 117.396 237.586C116.984 234.978 116.719 231.528 116.601 227.243L111.338 229.843C111.191 234.29 110.933 238.011 110.543 241.014C110.153 244.018 109.439 247.739 108.379 252.178H108.386Z" fill="#AE7AFF"/>
<path d="M102.564 276.953L79.5322 288.336L100.724 216.767L127.222 203.669L148.414 254.295L125.382 265.679L123.284 259.811L104.662 269.012L102.564 276.953ZM108.386 252.178L119.604 246.633C118.544 243.205 117.815 240.194 117.396 237.586C116.984 234.978 116.719 231.528 116.601 227.243L111.338 229.843C111.191 234.29 110.933 238.011 110.543 241.014C110.153 244.018 109.439 247.739 108.379 252.178H108.386Z" fill="white" fill-opacity="0.8"/>
<path d="M154.663 251.211V190.11L176.929 179.108V220.818L198.032 210.387V229.77L154.663 251.197V251.211Z" fill="#AE7AFF"/>
<path d="M154.663 251.211V190.11L176.929 179.108V220.818L198.032 210.387V229.77L154.663 251.197V251.211Z" fill="white" fill-opacity="0.8"/>
<path d="M245.943 206.109C243.234 201.538 240.996 198.263 239.245 196.278C237.493 194.293 235.792 193.099 234.151 192.703C232.51 192.308 230.507 192.608 228.137 193.612V214.914L205.871 225.917V164.816L228.137 153.813V174.097C230.279 172.844 232.09 171.247 233.577 169.321C235.064 167.394 236.558 164.706 238.074 161.263C239.583 157.82 241.497 152.751 243.808 146.07L268.297 133.969C266.523 138.818 264.97 142.92 263.631 146.268C262.291 149.616 260.929 152.692 259.545 155.49C258.162 158.289 256.873 160.596 255.696 162.398C254.511 164.208 253.164 165.885 251.647 167.446C250.131 168.998 248.607 170.317 247.069 171.394C245.531 172.471 243.69 173.577 241.548 174.72V179.745C244 178.646 246.127 177.84 247.93 177.32C249.726 176.8 251.485 176.558 253.193 176.595C254.908 176.632 256.432 176.954 257.771 177.569C259.111 178.185 260.524 179.217 262.011 180.675C263.498 182.133 264.941 183.876 266.354 185.92C267.767 187.964 269.372 190.542 271.168 193.656L245.95 206.116L245.943 206.109Z" fill="#AE7AFF"/>
<path d="M245.943 206.109C243.234 201.538 240.996 198.263 239.245 196.278C237.493 194.293 235.792 193.099 234.151 192.703C232.51 192.308 230.507 192.608 228.137 193.612V214.914L205.871 225.917V164.816L228.137 153.813V174.097C230.279 172.844 232.09 171.247 233.577 169.321C235.064 167.394 236.558 164.706 238.074 161.263C239.583 157.82 241.497 152.751 243.808 146.07L268.297 133.969C266.523 138.818 264.97 142.92 263.631 146.268C262.291 149.616 260.929 152.692 259.545 155.49C258.162 158.289 256.873 160.596 255.696 162.398C254.511 164.208 253.164 165.885 251.647 167.446C250.131 168.998 248.607 170.317 247.069 171.394C245.531 172.471 243.69 173.577 241.548 174.72V179.745C244 178.646 246.127 177.84 247.93 177.32C249.726 176.8 251.485 176.558 253.193 176.595C254.908 176.632 256.432 176.954 257.771 177.569C259.111 178.185 260.524 179.217 262.011 180.675C263.498 182.133 264.941 183.876 266.354 185.92C267.767 187.964 269.372 190.542 271.168 193.656L245.95 206.116L245.943 206.109Z" fill="white" fill-opacity="0.8"/>
<g clip-path="url(#clip1_6_21163)">
<mask id="mask0_6_21163" style="mask-type:luminance" maskUnits="userSpaceOnUse" x="10" y="8" width="63" height="63">
<path d="M72.4998 8.4999L10.5 8.67432L10.6744 70.6741L72.6742 70.4997L72.4998 8.4999Z" fill="white"/>
</mask>
<g mask="url(#mask0_6_21163)">
<path d="M41.6743 70.5869C40.6942 41.2207 39.9584 40.4937 10.5872 39.6742C39.9533 38.6941 40.6805 37.9583 41.4999 8.58711C42.4799 37.9532 43.2158 38.6804 72.587 39.4998C43.2208 40.4845 42.4937 41.2067 41.6743 70.5869Z" fill="#AE7AFF"/>
</g>
</g>
</g>
<defs>
<clipPath id="clip0_6_21163">
<rect width="355" height="430" fill="white" transform="translate(0.5 0.5)"/>
</clipPath>
<clipPath id="clip1_6_21163">
<rect width="62" height="62" fill="white" transform="translate(10.5 8.67432) rotate(-0.161186)"/>
</clipPath>
</defs>
</svg>
